<svg width="197" height="155" viewBox="0 0 197 155" fill="none" xmlns="http://www.w3.org/2000/svg">
<path d="M24.823 137.731C27.2469 136.194 28.5691 135.316 30.1116 134.657C33.8577 132.681 37.3835 130.485 41.1296 128.509C42.6721 127.85 44.435 127.411 46.1979 127.191C48.1811 126.972 50.1643 127.85 50.8254 129.826C51.4865 132.022 50.3847 133.559 48.6218 134.657C42.4518 138.829 36.2817 143.44 30.1116 147.612C27.6877 149.369 25.0434 150.906 22.399 152.224C14.2457 156.615 8.51637 154.419 6.53314 145.417C3.88883 132.901 2.12595 120.165 0.14272 107.649C-0.298 105.233 0.363072 102.379 1.02416 99.9636C1.46488 97.7678 2.78704 96.2307 5.87208 96.4503C8.51639 101.501 10.72 106.771 12.0421 112.48C13.3643 117.749 14.6865 123.239 16.89 128.509C17.9919 125.874 19.0936 123.019 20.4158 120.384C24.1619 112.48 27.6877 104.355 32.0949 96.8894C41.1296 81.0797 55.0123 73.1749 73.0817 72.077C82.7776 71.6378 92.4734 72.9553 101.949 74.7119C106.136 75.3707 110.323 76.0294 114.509 76.6881C124.646 78.0056 134.121 76.0294 143.156 71.6378C157.7 64.6113 168.938 53.8519 176.43 39.5792C181.719 29.4785 185.686 18.7191 188.55 7.74016C188.991 6.20311 188.771 4.66605 189.211 3.129C189.652 2.0311 190.533 0.274459 191.415 0.0548854C192.517 -0.164704 194.72 0.274475 195.381 1.37238C196.483 2.68985 196.924 4.88564 196.924 6.64227C196.924 9.93596 196.263 13.2297 195.602 16.5233C191.194 35.4072 183.702 52.9736 169.159 66.5875C158.141 76.9077 145.58 84.3734 130.816 87.4475C121.561 89.4237 112.306 88.1063 103.051 86.5692C97.3213 85.6909 91.5919 84.3734 85.8626 83.7147C80.7943 83.2755 75.7261 83.4951 70.6578 83.9343C61.6231 84.8126 54.1308 88.9846 48.4015 96.0111C45.7571 99.0852 43.5536 102.379 41.5703 105.892C36.502 115.115 31.6541 124.556 26.5859 133.779C25.9248 134.657 25.7044 135.755 24.823 137.731Z" fill="url(#paint0_linear_28_14)"/>
<defs>
<linearGradient id="paint0_linear_28_14" x1="-89.8998" y1="261.018" x2="196.6" y2="9.01785" gradientUnits="userSpaceOnUse">
<stop stop-color="#FE9677"/>
<stop offset="1" stop-color="#F2F2F2" stop-opacity="0"/>
</linearGradient>
</defs>
</svg>
