<svg width="32" height="32" viewBox="0 0 32 32" fill="none" xmlns="http://www.w3.org/2000/svg">
<g clip-path="url(#clip0_28_10)">
<path d="M7.288 23.292L15.285 15.295L16.699 16.709L8.702 24.706L7.288 23.292Z" fill="#AEAEAE"/>
<g filter="url(#filter0_d_28_10)">
<path d="M17 30C16.8733 30.0003 16.7478 29.9766 16.63 29.93C16.4662 29.8647 16.3225 29.7572 16.2136 29.6185C16.1048 29.4797 16.0345 29.3147 16.01 29.14L15.01 22.14L17.01 21.86L17.76 27.13L21 24.52V17C20.9992 16.8684 21.0245 16.7379 21.0742 16.6161C21.124 16.4943 21.1973 16.3834 21.29 16.29L25.36 12.22C26.1986 11.3871 26.8638 10.3961 27.3169 9.30439C27.7701 8.2127 28.0022 7.042 28 5.86V4H26.14C24.958 3.99775 23.7873 4.22992 22.6956 4.68308C21.6039 5.13623 20.6129 5.80136 19.78 6.64L15.71 10.71C15.6166 10.8027 15.5057 10.876 15.3839 10.9258C15.2621 10.9755 15.1316 11.0008 15 11H7.48L4.87 14.26L10.14 15.01L9.86 17.01L2.86 16.01C2.68534 15.9855 2.52027 15.9152 2.38153 15.8064C2.24279 15.6975 2.13531 15.5538 2.07 15.39C2.00388 15.225 1.98293 15.0454 2.00929 14.8696C2.03565 14.6939 2.10839 14.5283 2.22 14.39L6.22 9.39C6.31212 9.27031 6.43016 9.17304 6.56525 9.1055C6.70034 9.03795 6.84898 9.00188 7 9H14.59L18.36 5.22C19.3792 4.19511 20.5917 3.38273 21.9272 2.82999C23.2627 2.27725 24.6946 1.99513 26.14 2H28C28.5304 2 29.0391 2.21071 29.4142 2.58579C29.7893 2.96086 30 3.46957 30 4V5.86C30.0049 7.30537 29.7228 8.73732 29.17 10.0728C28.6173 11.4083 27.8049 12.6208 26.78 13.64L23 17.41V25C22.9993 25.1502 22.9648 25.2983 22.899 25.4334C22.8332 25.5684 22.7379 25.6869 22.62 25.78L17.62 29.78C17.4441 29.9212 17.2256 29.9987 17 30Z" fill="#AEAEAE"/>
</g>
</g>
<defs>
<filter id="filter0_d_28_10" x="-2.00177" y="1.99994" width="36.0018" height="36.0001" filterUnits="userSpaceOnUse" color-interpolation-filters="sRGB">
<feFlood flood-opacity="0" result="BackgroundImageFix"/>
<feColorMatrix in="SourceAlpha" type="matrix" values="0 0 0 0 0 0 0 0 0 0 0 0 0 0 0 0 0 0 127 0" result="hardAlpha"/>
<feOffset dy="4"/>
<feGaussianBlur stdDeviation="2"/>
<feComposite in2="hardAlpha" operator="out"/>
<feColorMatrix type="matrix" values="0 0 0 0 0 0 0 0 0 0 0 0 0 0 0 0 0 0 0.25 0"/>
<feBlend mode="normal" in2="BackgroundImageFix" result="effect1_dropShadow_28_10"/>
<feBlend mode="normal" in="SourceGraphic" in2="effect1_dropShadow_28_10" result="shape"/>
</filter>
<clipPath id="clip0_28_10">
<rect width="32" height="32" fill="white"/>
</clipPath>
</defs>
</svg>
